<svg xmlns="http://www.w3.org/2000/svg" xmlns:xlink="http://www.w3.org/1999/xlink" contentStyleType="text/css" data-diagram-type="STATE" height="1294px" preserveAspectRatio="none" style="width:1256px;height:1294px;background:#F7F4ED;" version="1.1" viewBox="0 0 1256 1294" width="1256px" zoomAndPan="magnify"><?plantuml 1.2026.5?><defs/><g><rect fill="#F7F4ED" height="1294" style="stroke:none;stroke-width:1;" width="1256" x="0" y="0"/><g class="title" data-source-line="1"><text fill="#000000" font-family="Arial" font-size="14" font-weight="700" lengthAdjust="spacing" textLength="277.6895" x="485.9091" y="23.1318">Context Step Compilation - State Machine</text></g><g class="entity" data-qualified-name="Collected" data-source-line="30" id="ent0001"><rect fill="#D8EAF1" height="50" rx="12.5" ry="12.5" style="stroke:#181818;stroke-width:0.5;" width="78.3652" x="789.878" y="139.0986"/><line style="stroke:#181818;stroke-width:0.5;" x1="789.878" x2="868.2432" y1="165.1973" y2="165.1973"/><text fill="#000000" font-family="Arial" font-size="14" lengthAdjust="spacing" textLength="58.3652" x="799.878" y="157.2305">Collected</text></g><g class="entity" data-qualified-name="Grouped" data-source-line="31" id="ent0002"><rect fill="#D8EAF1" height="50" rx="12.5" ry="12.5" style="stroke:#181818;stroke-width:0.5;" width="74.4824" x="593.818" y="265.0986"/><line style="stroke:#181818;stroke-width:0.5;" x1="593.818" x2="668.3004" y1="291.1973" y2="291.1973"/><text fill="#000000" font-family="Arial" font-size="14" lengthAdjust="spacing" textLength="54.4824" x="603.818" y="283.2305">Grouped</text></g><g class="entity" data-qualified-name="Merged" data-source-line="32" id="ent0003"><rect fill="#DCE8C9" height="50" rx="12.5" ry="12.5" style="stroke:#181818;stroke-width:0.5;" width="67.4688" x="508.328" y="391.0986"/><line style="stroke:#181818;stroke-width:0.5;" x1="508.328" x2="575.7967" y1="417.1973" y2="417.1973"/><text fill="#000000" font-family="Arial" font-size="14" lengthAdjust="spacing" textLength="47.4688" x="518.328" y="409.2305">Merged</text></g><g class="entity" data-qualified-name="Counted" data-source-line="33" id="ent0004"><rect fill="#F9D65C" height="50" rx="12.5" ry="12.5" style="stroke:#181818;stroke-width:0.5;" width="72.9307" x="443.588" y="517.0986"/><line style="stroke:#181818;stroke-width:0.5;" x1="443.588" x2="516.5186" y1="543.1973" y2="543.1973"/><text fill="#000000" font-family="Arial" font-size="14" lengthAdjust="spacing" textLength="52.9307" x="453.588" y="535.2305">Counted</text></g><g class="entity" data-qualified-name="Proposing" data-source-line="34" id="ent0005"><rect fill="#F2D8D5" height="50" rx="12.5" ry="12.5" style="stroke:#181818;stroke-width:0.5;" width="83.041" x="428.538" y="643.0986"/><line style="stroke:#181818;stroke-width:0.5;" x1="428.538" x2="511.579" y1="669.1973" y2="669.1973"/><text fill="#000000" font-family="Arial" font-size="14" lengthAdjust="spacing" textLength="63.041" x="438.538" y="661.2305">Proposing</text></g><g class="entity" data-qualified-name="Selecting" data-source-line="35" id="ent0006"><rect fill="#F2D8D5" height="50" rx="12.5" ry="12.5" style="stroke:#181818;stroke-width:0.5;" width="77.5928" x="399.258" y="769.0986"/><line style="stroke:#181818;stroke-width:0.5;" x1="399.258" x2="476.8507" y1="795.1973" y2="795.1973"/><text fill="#000000" font-family="Arial" font-size="14" lengthAdjust="spacing" textLength="57.5928" x="409.258" y="787.2305">Selecting</text></g><g class="entity" data-qualified-name="Planned" data-source-line="36" id="ent0007"><rect fill="#DCE8C9" height="50" rx="12.5" ry="12.5" style="stroke:#181818;stroke-width:0.5;" width="71.3789" x="228.368" y="643.0986"/><line style="stroke:#181818;stroke-width:0.5;" x1="228.368" x2="299.7469" y1="669.1973" y2="669.1973"/><text fill="#000000" font-family="Arial" font-size="14" lengthAdjust="spacing" textLength="51.3789" x="238.368" y="661.2305">Planned</text></g><g class="entity" data-qualified-name="Materialized" data-source-line="37" id="ent0008"><rect fill="#DCE8C9" height="50" rx="12.5" ry="12.5" style="stroke:#181818;stroke-width:0.5;" width="95.4756" x="127.318" y="769.0986"/><line style="stroke:#181818;stroke-width:0.5;" x1="127.318" x2="222.7935" y1="795.1973" y2="795.1973"/><text fill="#000000" font-family="Arial" font-size="14" lengthAdjust="spacing" textLength="75.4756" x="137.318" y="787.2305">Materialized</text></g><g class="entity" data-qualified-name="Verified" data-source-line="38" id="ent0009"><rect fill="#E7DDF1" height="50" rx="12.5" ry="12.5" style="stroke:#181818;stroke-width:0.5;" width="67.4688" x="100.328" y="895.0986"/><line style="stroke:#181818;stroke-width:0.5;" x1="100.328" x2="167.7967" y1="921.1973" y2="921.1973"/><text fill="#000000" font-family="Arial" font-size="14" lengthAdjust="spacing" textLength="47.4688" x="110.328" y="913.2305">Verified</text></g><g class="entity" data-qualified-name="Used" data-source-line="39" id="ent0010"><rect fill="#DCE8C9" height="50" rx="12.5" ry="12.5" style="stroke:#181818;stroke-width:0.5;" width="52.6826" x="16.718" y="1021.0986"/><line style="stroke:#181818;stroke-width:0.5;" x1="16.718" x2="69.4006" y1="1047.1973" y2="1047.1973"/><text fill="#000000" font-family="Arial" font-size="14" lengthAdjust="spacing" textLength="32.6826" x="26.718" y="1039.2305">Used</text></g><g class="entity" data-qualified-name="Rejected" data-source-line="40" id="ent0011"><rect fill="#F7C9B6" height="50" rx="12.5" ry="12.5" style="stroke:#181818;stroke-width:0.5;" width="75.2549" x="294.428" y="1021.0986"/><line style="stroke:#181818;stroke-width:0.5;" x1="294.428" x2="369.6828" y1="1047.1973" y2="1047.1973"/><text fill="#000000" font-family="Arial" font-size="14" lengthAdjust="spacing" textLength="55.2549" x="304.428" y="1039.2305">Rejected</text></g><g class="entity" data-qualified-name="Audited" data-source-line="41" id="ent0012"><rect fill="#E7DDF1" height="50" rx="12.5" ry="12.5" style="stroke:#181818;stroke-width:0.5;" width="67.4824" x="164.318" y="1147.0986"/><line style="stroke:#181818;stroke-width:0.5;" x1="164.318" x2="231.8004" y1="1173.1973" y2="1173.1973"/><text fill="#000000" font-family="Arial" font-size="14" lengthAdjust="spacing" textLength="47.4824" x="174.318" y="1165.2305">Audited</text></g><g class="start_entity" data-qualified-name=".start." data-source-line="8" id="ent0013"><ellipse cx="829.058" cy="53.0986" fill="#222222" rx="10" ry="10" style="stroke:#222222;stroke-width:1;"/></g><g class="end_entity" data-qualified-name=".end." data-source-line="28" id="ent0031"><ellipse cx="198.058" cy="1269.0986" fill="none" rx="11" ry="11" style="stroke:#222222;stroke-width:1;"/><ellipse cx="198.058" cy="1269.0986" fill="#222222" rx="6" ry="6" style="stroke:#222222;stroke-width:1;"/></g><g class="entity" data-qualified-name="GMN33" data-source-line="44" id="ent0034"><path d="M703.428,270.1486 L703.428,286.0986 L668.698,290.0986 L703.428,294.0986 L703.428,310.0461 A0,0 0 0 0 703.428,310.0461 L968.6921,310.0461 A0,0 0 0 0 968.6921,310.0461 L968.6921,280.1486 L958.6921,270.1486 L703.428,270.1486 A0,0 0 0 0 703.428,270.1486" fill="#FEFFDD" style="stroke:#181818;stroke-width:0.5;"/><path d="M958.6921,270.1486 L958.6921,280.1486 L968.6921,280.1486 L958.6921,270.1486" fill="#FEFFDD" style="stroke:#181818;stroke-width:0.5;"/><text fill="#000000" font-family="Arial" font-size="13" lengthAdjust="spacing" textLength="236.2725" x="709.428" y="287.3425">Only the last complete turn is mandatory.</text><text fill="#000000" font-family="Arial" font-size="13" lengthAdjust="spacing" textLength="244.2642" x="709.428" y="302.2912">Tool observations do not open a user turn.</text></g><g class="entity" data-qualified-name="GMN36" data-source-line="49" id="ent0037"><path d="M630.408,774.1486 L630.408,790.0986 L477.158,794.0986 L630.408,798.0986 L630.408,814.0461 A0,0 0 0 0 630.408,814.0461 L973.7039,814.0461 A0,0 0 0 0 973.7039,814.0461 L973.7039,784.1486 L963.7039,774.1486 L630.408,774.1486 A0,0 0 0 0 630.408,774.1486" fill="#FEFFDD" style="stroke:#181818;stroke-width:0.5;"/><path d="M963.7039,774.1486 L963.7039,784.1486 L973.7039,784.1486 L963.7039,774.1486" fill="#FEFFDD" style="stroke:#181818;stroke-width:0.5;"/><text fill="#000000" font-family="Arial" font-size="13" lengthAdjust="spacing" textLength="179.2261" x="636.408" y="791.3425">Strategies propose candidates.</text><text fill="#000000" font-family="Arial" font-size="13" lengthAdjust="spacing" textLength="322.2959" x="636.408" y="806.2912">The selector is replaceable; no fixed global action order.</text></g><!--link *start* to Collected--><g class="link" data-entity-1="ent0013" data-entity-2="ent0001" data-link-type="dependency" data-source-line="8" id="lnk14"><path d="M829.058,63.3886 C829.058,79.9686 829.058,110.1286 829.058,133.9486" fill="none" id="*start*-to-Collected" style="stroke:#30343B;stroke-width:1;"/><polygon fill="#30343B" points="829.058,138.9486,833.058,129.9486,829.058,133.9486,825.058,129.9486,829.058,138.9486" style="stroke:#30343B;stroke-width:1;stroke-linejoin:miter;stroke-miterlimit:10;"/><text fill="#000000" font-family="Arial" font-size="13" lengthAdjust="spacing" textLength="99.7153" x="830.058" y="106.2925">Mastra step input</text></g><!--link Collected to Grouped--><g class="link" data-entity-1="ent0001" data-entity-2="ent0002" data-link-type="dependency" data-source-line="9" id="lnk15"><path d="M789.938,189.5986 C754.778,211.6186 707.7058,241.0951 672.9858,262.8351" fill="none" id="Collected-to-Grouped" style="stroke:#30343B;stroke-width:1;"/><polygon fill="#30343B" points="668.748,265.4886,678.4988,264.1026,672.9858,262.8351,674.2532,257.3221,668.748,265.4886" style="stroke:#30343B;stroke-width:1;stroke-linejoin:miter;stroke-miterlimit:10;"/><text fill="#000000" font-family="Arial" font-size="13" lengthAdjust="spacing" textLength="143.0825" x="742.908" y="232.2925">group conversation turns</text></g><!--link Collected to Rejected--><g class="link" data-entity-1="ent0001" data-entity-2="ent0011" data-link-type="dependency" data-source-line="10" id="lnk16"><path d="M868.648,171.5886 C926.428,183.5786 1027.058,215.0786 1027.058,289.0986 C1027.058,289.0986 1027.058,289.0986 1027.058,921.0986 C1027.058,988.4286 519.934,1031.1653 374.904,1042.0253" fill="none" id="Collected-to-Rejected" style="stroke:#30343B;stroke-width:1;"/><polygon fill="#30343B" points="369.918,1042.3986,379.1915,1045.7154,374.904,1042.0253,378.5941,1037.7378,369.918,1042.3986" style="stroke:#30343B;stroke-width:1;stroke-linejoin:miter;stroke-miterlimit:10;"/><text fill="#000000" font-family="Arial" font-size="13" lengthAdjust="spacing" textLength="212.4497" x="1028.058" y="610.2925">duplicate message id / invalid source</text></g><!--link Grouped to Merged--><g class="link" data-entity-1="ent0002" data-entity-2="ent0003" data-link-type="dependency" data-source-line="11" id="lnk17"><path d="M613.478,315.5986 C597.868,337.3386 578.1135,364.8667 562.5235,386.5867" fill="none" id="Grouped-to-Merged" style="stroke:#30343B;stroke-width:1;"/><polygon fill="#30343B" points="559.608,390.6486,568.1055,385.6696,562.5235,386.5867,561.6064,381.0047,559.608,390.6486" style="stroke:#30343B;stroke-width:1;stroke-linejoin:miter;stroke-miterlimit:10;"/><text fill="#000000" font-family="Arial" font-size="13" lengthAdjust="spacing" textLength="180.2988" x="592.888" y="358.2925">build + merge package revision</text></g><!--link Merged to Counted--><g class="link" data-entity-1="ent0003" data-entity-2="ent0004" data-link-type="dependency" data-source-line="12" id="lnk18"><path d="M529.808,441.5986 C518.938,463.3386 505.3857,490.4573 494.5157,512.1773" fill="none" id="Merged-to-Counted" style="stroke:#30343B;stroke-width:1;"/><polygon fill="#30343B" points="492.278,516.6486,499.8829,510.3904,494.5157,512.1773,492.7288,506.8101,492.278,516.6486" style="stroke:#30343B;stroke-width:1;stroke-linejoin:miter;stroke-miterlimit:10;"/><text fill="#000000" font-family="Arial" font-size="13" lengthAdjust="spacing" textLength="222.1743" x="515.768" y="484.2925">system + tools + messages + reserves</text></g><!--link Counted to Planned--><g class="link" data-entity-1="ent0004" data-entity-2="ent0007" data-link-type="dependency" data-source-line="14" id="lnk19"><path d="M443.258,562.4286 C424.258,572.5486 400.788,585.2586 380.058,597.0986 C352.998,612.5586 327.1293,628.1531 304.3693,642.1231" fill="none" id="Counted-to-Planned" style="stroke:#30343B;stroke-width:1;"/><polygon fill="#30343B" points="300.108,644.7386,309.8708,643.4396,304.3693,642.1231,305.6859,636.6215,300.108,644.7386" style="stroke:#30343B;stroke-width:1;stroke-linejoin:miter;stroke-miterlimit:10;"/><text fill="#000000" font-family="Arial" font-size="13" lengthAdjust="spacing" textLength="76.6099" x="381.058" y="610.2925">within budget</text></g><!--link Counted to Proposing--><g class="link" data-entity-1="ent0004" data-entity-2="ent0005" data-link-type="dependency" data-source-line="15" id="lnk20"><path d="M472.928,567.3386 C470.558,576.5686 468.228,587.2386 467.058,597.0986 C465.268,612.1986 465.5096,624.257 466.6696,637.747" fill="none" id="Counted-to-Proposing" style="stroke:#30343B;stroke-width:1;"/><polygon fill="#30343B" points="467.098,642.7286,470.3122,633.419,466.6696,637.747,462.3416,634.1044,467.098,642.7286" style="stroke:#30343B;stroke-width:1;stroke-linejoin:miter;stroke-miterlimit:10;"/><text fill="#000000" font-family="Arial" font-size="13" lengthAdjust="spacing" textLength="123.5952" x="468.058" y="610.2925">exceeds input budget</text></g><!--link Proposing to Selecting--><g class="link" data-entity-1="ent0005" data-entity-2="ent0006" data-link-type="dependency" data-source-line="16" id="lnk21"><path d="M428.348,686.4786 C413.138,695.1086 397.588,707.1586 389.058,723.0986 C380.518,739.0586 387.6454,752.2314 401.2154,765.2914" fill="none" id="Proposing-to-Selecting" style="stroke:#30343B;stroke-width:1;"/><polygon fill="#30343B" points="404.818,768.7586,401.1071,759.6356,401.2154,765.2914,395.5596,765.3998,404.818,768.7586" style="stroke:#30343B;stroke-width:1;stroke-linejoin:miter;stroke-miterlimit:10;"/><text fill="#000000" font-family="Arial" font-size="13" lengthAdjust="spacing" textLength="160.4243" x="390.058" y="736.2925">strategies return candidates</text></g><!--link Proposing to Rejected--><g class="link" data-entity-1="ent0005" data-entity-2="ent0011" data-link-type="dependency" data-source-line="17" id="lnk22"><path d="M511.978,685.0786 C528.488,693.6786 545.708,706.0886 555.058,723.0986 C602.568,809.5686 608.688,862.2786 555.058,945.0986 C514.008,1008.4986 427.163,1031.2755 375.053,1039.7555" fill="none" id="Proposing-to-Rejected" style="stroke:#30343B;stroke-width:1;"/><polygon fill="#30343B" points="370.118,1040.5586,379.6436,1043.0611,375.053,1039.7555,378.3586,1035.165,370.118,1040.5586" style="stroke:#30343B;stroke-width:1;stroke-linejoin:miter;stroke-miterlimit:10;"/><text fill="#000000" font-family="Arial" font-size="13" lengthAdjust="spacing" textLength="74.4517" x="593.568" y="862.2925">no candidate</text></g><!--link Selecting to Counted--><g class="link" data-entity-1="ent0006" data-entity-2="ent0004" data-link-type="dependency" data-source-line="18" id="lnk23"><path d="M477.308,784.7386 C503.908,777.1286 537.938,763.2586 559.058,739.0986 C597.468,695.1586 587.748,670.8686 596.058,613.0986 C597.068,606.0586 599.878,603.0986 596.058,597.0986 C578.738,569.9386 548.6772,557.4372 521.6572,550.6472" fill="none" id="Selecting-to-Counted" style="stroke:#30343B;stroke-width:1;"/><polygon fill="#30343B" points="516.808,549.4286,524.5617,555.5015,521.6572,550.6472,526.5114,547.7427,516.808,549.4286" style="stroke:#30343B;stroke-width:1;stroke-linejoin:miter;stroke-miterlimit:10;"/><text fill="#000000" font-family="Arial" font-size="13" lengthAdjust="spacing" textLength="167.6733" x="593.708" y="673.2925">apply candidate and re-count</text></g><!--link Selecting to Rejected--><g class="link" data-entity-1="ent0006" data-entity-2="ent0011" data-link-type="dependency" data-source-line="19" id="lnk24"><path d="M413.068,819.4886 C395.178,838.4286 372.058,866.2486 359.058,895.0986 C340.358,936.5886 334.8866,985.047 333.1166,1015.657" fill="none" id="Selecting-to-Rejected" style="stroke:#30343B;stroke-width:1;"/><polygon fill="#30343B" points="332.828,1020.6486,337.3408,1011.8946,333.1166,1015.657,329.3542,1011.4327,332.828,1020.6486" style="stroke:#30343B;stroke-width:1;stroke-linejoin:miter;stroke-miterlimit:10;"/><text fill="#000000" font-family="Arial" font-size="13" lengthAdjust="spacing" textLength="190.7725" x="360.058" y="925.2925">no progress / mandatory affected</text></g><!--link Planned to Materialized--><g class="link" data-entity-1="ent0007" data-entity-2="ent0008" data-link-type="dependency" data-source-line="21" id="lnk25"><path d="M246.478,693.5986 C230.868,715.3386 211.1135,742.8667 195.5235,764.5867" fill="none" id="Planned-to-Materialized" style="stroke:#30343B;stroke-width:1;"/><polygon fill="#30343B" points="192.608,768.6486,201.1055,763.6696,195.5235,764.5867,194.6064,759.0047,192.608,768.6486" style="stroke:#30343B;stroke-width:1;stroke-linejoin:miter;stroke-miterlimit:10;"/><text fill="#000000" font-family="Arial" font-size="13" lengthAdjust="spacing" textLength="134.3989" x="225.888" y="736.2925">immutable ContextPlan</text></g><!--link Materialized to Verified--><g class="link" data-entity-1="ent0008" data-entity-2="ent0009" data-link-type="dependency" data-source-line="22" id="lnk26"><path d="M149.308,819.4686 C141.958,828.0486 134.908,838.2786 131.058,849.0986 C125.878,863.6486 125.8528,876.0515 127.8728,889.8315" fill="none" id="Materialized-to-Verified" style="stroke:#30343B;stroke-width:1;"/><polygon fill="#30343B" points="128.598,894.7786,131.2503,885.2936,127.8728,889.8315,123.3349,886.454,128.598,894.7786" style="stroke:#30343B;stroke-width:1;stroke-linejoin:miter;stroke-miterlimit:10;"/><text fill="#000000" font-family="Arial" font-size="13" lengthAdjust="spacing" textLength="173.4307" x="132.058" y="862.2925">provider-shaped prompt count</text></g><!--link Verified to Used--><g class="link" data-entity-1="ent0009" data-entity-2="ent0010" data-link-type="dependency" data-source-line="23" id="lnk27"><path d="M100.078,926.7586 C72.718,933.2886 35.968,946.9986 18.058,975.0986 C9.108,989.1386 12.927,1002.5284 21.497,1016.5984" fill="none" id="Verified-to-Used" style="stroke:#30343B;stroke-width:1;"/><polygon fill="#30343B" points="24.098,1020.8686,22.8324,1011.1014,21.497,1016.5984,16,1015.263,24.098,1020.8686" style="stroke:#30343B;stroke-width:1;stroke-linejoin:miter;stroke-miterlimit:10;"/><text fill="#000000" font-family="Arial" font-size="13" lengthAdjust="spacing" textLength="117.7808" x="19.058" y="988.2925">provider call allowed</text></g><!--link Verified to Rejected--><g class="link" data-entity-1="ent0009" data-entity-2="ent0011" data-link-type="dependency" data-source-line="24" id="lnk28"><path d="M143.898,945.4786 C151.088,960.4986 162.168,979.1186 177.058,991.0986 C211.248,1018.6086 255.4954,1031.5761 289.2254,1038.3361" fill="none" id="Verified-to-Rejected" style="stroke:#30343B;stroke-width:1;"/><polygon fill="#30343B" points="294.128,1039.3186,286.0895,1033.6281,289.2254,1038.3361,284.5174,1041.4721,294.128,1039.3186" style="stroke:#30343B;stroke-width:1;stroke-linejoin:miter;stroke-miterlimit:10;"/><text fill="#000000" font-family="Arial" font-size="13" lengthAdjust="spacing" textLength="127.2134" x="178.058" y="988.2925">final budget exceeded</text></g><!--link Used to Audited--><g class="link" data-entity-1="ent0010" data-entity-2="ent0012" data-link-type="dependency" data-source-line="26" id="lnk29"><path d="M69.708,1068.4186 C96.878,1090.1586 135.0937,1120.725 163.6037,1143.535" fill="none" id="Used-to-Audited" style="stroke:#30343B;stroke-width:1;"/><polygon fill="#30343B" points="167.508,1146.6586,162.9793,1137.9127,163.6037,1143.535,157.9815,1144.1594,167.508,1146.6586" style="stroke:#30343B;stroke-width:1;stroke-linejoin:miter;stroke-miterlimit:10;"/><text fill="#000000" font-family="Arial" font-size="13" lengthAdjust="spacing" textLength="96.1099" x="130.838" y="1114.2925">bounded metrics</text></g><!--link Rejected to Audited--><g class="link" data-entity-1="ent0011" data-entity-2="ent0012" data-link-type="dependency" data-source-line="27" id="lnk30"><path d="M305.588,1071.5986 C282.088,1093.3386 251.6177,1121.5326 228.1477,1143.2526" fill="none" id="Rejected-to-Audited" style="stroke:#30343B;stroke-width:1;"/><polygon fill="#30343B" points="224.478,1146.6486,233.8003,1143.4715,228.1477,1143.2526,228.3666,1137.5999,224.478,1146.6486" style="stroke:#30343B;stroke-width:1;stroke-linejoin:miter;stroke-miterlimit:10;"/><text fill="#000000" font-family="Arial" font-size="13" lengthAdjust="spacing" textLength="160.4243" x="274.078" y="1114.2925">reason without prompt body</text></g><!--link Audited to *end*--><g class="link" data-entity-1="ent0012" data-entity-2="ent0031" data-link-type="dependency" data-source-line="28" id="lnk32"><path d="M198.058,1197.5586 C198.058,1217.1386 198.058,1238.5886 198.058,1252.8986" fill="none" id="Audited-to-*end*" style="stroke:#30343B;stroke-width:1;"/><polygon fill="#30343B" points="198.058,1257.8986,202.058,1248.8986,198.058,1252.8986,194.058,1248.8986,198.058,1257.8986" style="stroke:#30343B;stroke-width:1;stroke-linejoin:miter;stroke-miterlimit:10;"/></g><?plantuml-src NLHBZzCm4BxxLupK6wZBOtVP1n9IjsavBI0Mk20ERZn9pJgsPJljbb_FZ9CqJG-HdF7tpVCR9vqCmjBPX2y9dX9w-ccyDZ9fPs5E9faG7cMvrHQ5YC_QUXba0t4hbTjhMqCbJSIJcuqid-lWMgkMphW0i_ND-cfLd20KLh8rQKrXlyW6OH6qD2VtYn3SlYTVlhsykdmGulUhFp2VVwBqZC4oeO9xIYkc825osiHjanXl6VkPil0PoVbuA9tTOOXTRQaDDfuHlkFVmRTglT4b5zzWZB96q0hUK9YTD7IAhWqbYY42anynr9cwQRLHy9g8P01FxM1wm9sE55ZqkAwOrdRXue6gQ8YKd3CnatDKFWQC67OOXHZmpFrcfBMPkzU9faDXLOrfYWdEkyX3kWTyAH5Lx1erW4S0mv-GUz71kRC9QqqP1EHUGIcjqegCyOnsqZNhHfWOtKrhbTwRmuW3Eb2CUSc0CzBKjG-kfcP4caD399bSE82igWmHOkX87WOvPbNfVvcicwPDSZDgdR5Y0cBMB_gjT6PGh9rM6EOaT9um_JS-GPVa4SUadt52eCAC0VhSdfAQ84-ggRILffz2Fnek8VjYwA9LkaDkU9Fer60AkepYw6GA2oWZgPgru6Y-VReRfmvY0361reYsE2_rAFrPSRjQhD_rza7JKsklsbcnNDqkxuukkfdErdV5X-jbRntLCLk_BswBwzu-ZdPg7-OszJqPplJgsDJPwgOeZYdcvasHnsRH8xIyU_ZGcuUE37nX7Lc3hhS9N3LqG7orfDEqHJ3qqD3e6s-GS7aRT1mrU25-qDQ2s_2UvjSbWdAaMFBcqOA4bcuoxq8WgPt3dGSzTaSyZQldSolnPFSe5YKKCvZUHythwOqiaTNzaRUaqYzKMctSXXGco_pOkK3AF8dz7m00?></g></svg>