<svg width="1200" height="560" viewBox="0 0 1200 560" fill="none" xmlns="http://www.w3.org/2000/svg" role="img" aria-labelledby="title desc">
  <title id="title">DataAgent compatibility banner</title>
  <desc id="desc">A visual banner showing DataAgent as a compatibility-first runtime with ready-to-use protocol, model, tool, file, memory, artifact, and client integrations.</desc>
  <defs>
    <filter id="softShadow" x="-30" y="-30" width="1260" height="620" filterUnits="userSpaceOnUse" color-interpolation-filters="sRGB">
      <feDropShadow dx="0" dy="18" stdDeviation="20" flood-color="#0F172A" flood-opacity="0.12"/>
    </filter>
    <filter id="cardShadow" x="-16" y="-16" width="1232" height="592" filterUnits="userSpaceOnUse" color-interpolation-filters="sRGB">
      <feDropShadow dx="0" dy="10" stdDeviation="14" flood-color="#0F172A" flood-opacity="0.08"/>
    </filter>
    <linearGradient id="core" x1="390" y1="126" x2="810" y2="434" gradientUnits="userSpaceOnUse">
      <stop stop-color="#0B1220"/>
      <stop offset="0.48" stop-color="#11215A"/>
      <stop offset="1" stop-color="#123C69"/>
    </linearGradient>
    <linearGradient id="glass" x1="442" y1="158" x2="756" y2="400" gradientUnits="userSpaceOnUse">
      <stop stop-color="#34D399" stop-opacity="0.8"/>
      <stop offset="0.5" stop-color="#60A5FA" stop-opacity="0.52"/>
      <stop offset="1" stop-color="#F59E0B" stop-opacity="0.64"/>
    </linearGradient>
    <pattern id="grid" width="30" height="30" patternUnits="userSpaceOnUse">
      <path d="M30 0H0V30" stroke="#CBD5E1" stroke-opacity="0.28" stroke-width="1"/>
    </pattern>
    <style>
      .tiny { font: 850 10px Avenir Next, Manrope, ui-sans-serif, system-ui, sans-serif; fill: #64748B; letter-spacing: .14em; }
      .coreTitle { font: 900 36px Avenir Next, Manrope, ui-sans-serif, system-ui, sans-serif; fill: #FFFFFF; }
      .coreText { font: 780 15px Avenir Next, Manrope, ui-sans-serif, system-ui, sans-serif; fill: #D8E7FF; }
      .label { font: 850 12px Avenir Next, Manrope, ui-sans-serif, system-ui, sans-serif; fill: #334155; letter-spacing: .04em; }
      .darkLabel { font: 850 12px Avenir Next, Manrope, ui-sans-serif, system-ui, sans-serif; fill: #D8E7FF; letter-spacing: .04em; }
    </style>
  </defs>

  <rect width="1200" height="560" rx="32" fill="#F8FAFC"/>
  <rect x="36" y="36" width="1128" height="488" rx="30" fill="url(#grid)"/>
  <rect x="36" y="36" width="1128" height="488" rx="30" fill="#F8FAFC" fill-opacity="0.86"/>
  <text x="60" y="68" class="tiny">COMPATIBILITY-FIRST RUNTIME</text>

  <g filter="url(#softShadow)">
    <rect x="382" y="116" width="436" height="320" rx="44" fill="url(#core)"/>
    <rect x="406" y="140" width="388" height="272" rx="34" stroke="url(#glass)" stroke-width="2" stroke-opacity="0.82"/>
    <path d="M468 244c64-64 194-86 284-16" stroke="#60A5FA" stroke-opacity="0.38" stroke-width="16" stroke-linecap="round"/>
    <path d="M458 328c86 58 206 56 286-8" stroke="#34D399" stroke-opacity="0.34" stroke-width="16" stroke-linecap="round"/>
    <circle cx="600" cy="278" r="76" fill="#0F766E" fill-opacity="0.26"/>
    <circle cx="600" cy="278" r="48" fill="#14B8A6"/>
    <path d="M580 278h40M600 258v40" stroke="#FFFFFF" stroke-width="8" stroke-linecap="round"/>
    <text x="600" y="374" class="coreTitle" text-anchor="middle">DataAgent</text>
    <text x="600" y="400" class="coreText" text-anchor="middle">ready on day one</text>
  </g>

  <g filter="url(#cardShadow)">
    <rect x="92" y="112" width="134" height="92" rx="26" fill="#EFF6FF" stroke="#BFDBFE"/>
    <rect x="136" y="134" width="46" height="46" rx="16" fill="#DBEAFE" stroke="#93C5FD"/>
    <path d="M149 157h20M159 147v20" stroke="#2563EB" stroke-width="4" stroke-linecap="round"/>
    <text x="159" y="191" class="label" text-anchor="middle">GUI</text>

    <rect x="250" y="112" width="134" height="92" rx="26" fill="#F5F3FF" stroke="#DDD6FE"/>
    <rect x="294" y="134" width="46" height="46" rx="16" fill="#EDE9FE" stroke="#C4B5FD"/>
    <path d="M304 153h26M304 165h18" stroke="#7C3AED" stroke-width="4" stroke-linecap="round"/>
    <text x="317" y="191" class="label" text-anchor="middle">TUI</text>
  </g>

  <g filter="url(#cardShadow)">
    <rect x="82" y="232" width="132" height="92" rx="26" fill="#ECFEFF" stroke="#A5F3FC"/>
    <rect x="125" y="254" width="46" height="46" rx="16" fill="#CFFAFE" stroke="#67E8F9"/>
    <path d="M136 277c12-16 24-16 36 0" stroke="#0891B2" stroke-width="4" stroke-linecap="round"/>
    <text x="148" y="311" class="label" text-anchor="middle">AG-UI</text>

    <rect x="236" y="232" width="132" height="92" rx="26" fill="#F0FDF4" stroke="#BBF7D0"/>
    <rect x="279" y="254" width="46" height="46" rx="16" fill="#DCFCE7" stroke="#86EFAC"/>
    <path d="M290 276l8 8 18-22" stroke="#16A34A" stroke-width="4" stroke-linecap="round" stroke-linejoin="round"/>
    <text x="302" y="311" class="label" text-anchor="middle">MCP</text>
  </g>

  <g filter="url(#cardShadow)">
    <rect x="106" y="352" width="134" height="92" rx="26" fill="#FFF7ED" stroke="#FED7AA"/>
    <rect x="150" y="374" width="46" height="46" rx="16" fill="#FFEDD5" stroke="#FDBA74"/>
    <path d="M162 394h22M173 383v22" stroke="#EA580C" stroke-width="4" stroke-linecap="round"/>
    <text x="173" y="431" class="label" text-anchor="middle">Tools</text>

    <rect x="264" y="352" width="134" height="92" rx="26" fill="#FDF2F8" stroke="#FBCFE8"/>
    <rect x="308" y="374" width="46" height="46" rx="16" fill="#FCE7F3" stroke="#F9A8D4"/>
    <path d="M320 388h22M320 402h22" stroke="#DB2777" stroke-width="4" stroke-linecap="round"/>
    <text x="331" y="431" class="label" text-anchor="middle">Audit</text>
  </g>

  <g filter="url(#cardShadow)">
    <rect x="816" y="112" width="134" height="92" rx="26" fill="#EFF6FF" stroke="#BFDBFE"/>
    <rect x="860" y="134" width="46" height="46" rx="16" fill="#DBEAFE" stroke="#93C5FD"/>
    <path d="M872 156h22M883 145v22" stroke="#2563EB" stroke-width="4" stroke-linecap="round"/>
    <text x="883" y="191" class="label" text-anchor="middle">Models</text>

    <rect x="974" y="112" width="134" height="92" rx="26" fill="#F0FDF4" stroke="#BBF7D0"/>
    <rect x="1018" y="134" width="46" height="46" rx="16" fill="#DCFCE7" stroke="#86EFAC"/>
    <path d="M1029 159h24M1041 147v24" stroke="#16A34A" stroke-width="4" stroke-linecap="round"/>
    <text x="1041" y="191" class="label" text-anchor="middle">Memory</text>
  </g>

  <g filter="url(#cardShadow)">
    <rect x="832" y="232" width="132" height="92" rx="26" fill="#F5F3FF" stroke="#DDD6FE"/>
    <rect x="875" y="254" width="46" height="46" rx="16" fill="#EDE9FE" stroke="#C4B5FD"/>
    <path d="M887 267h22M887 281h22" stroke="#7C3AED" stroke-width="4" stroke-linecap="round"/>
    <text x="898" y="311" class="label" text-anchor="middle">Files</text>

    <rect x="986" y="232" width="132" height="92" rx="26" fill="#ECFEFF" stroke="#A5F3FC"/>
    <rect x="1029" y="254" width="46" height="46" rx="16" fill="#CFFAFE" stroke="#67E8F9"/>
    <path d="M1040 276l8 8 18-22" stroke="#0891B2" stroke-width="4" stroke-linecap="round" stroke-linejoin="round"/>
    <text x="1052" y="311" class="label" text-anchor="middle">RAG</text>
  </g>

  <g filter="url(#cardShadow)">
    <rect x="802" y="352" width="134" height="92" rx="26" fill="#FFF7ED" stroke="#FED7AA"/>
    <rect x="846" y="374" width="46" height="46" rx="16" fill="#FFEDD5" stroke="#FDBA74"/>
    <path d="M858 386h22v20h-22z" stroke="#EA580C" stroke-width="4" stroke-linejoin="round"/>
    <text x="869" y="431" class="label" text-anchor="middle">Artifacts</text>

    <rect x="960" y="352" width="134" height="92" rx="26" fill="#FDF2F8" stroke="#FBCFE8"/>
    <rect x="1004" y="374" width="46" height="46" rx="16" fill="#FCE7F3" stroke="#F9A8D4"/>
    <path d="M1016 398h22M1027 387v22" stroke="#DB2777" stroke-width="4" stroke-linecap="round"/>
    <text x="1027" y="431" class="label" text-anchor="middle">Skills</text>
  </g>

  <g filter="url(#cardShadow)">
    <rect x="318" y="472" width="564" height="36" rx="18" fill="#FFFFFF" stroke="#E2E8F0"/>
    <g transform="translate(354 481)">
      <circle cx="9" cy="9" r="9" fill="#14B8A6"/>
      <path d="M5 9l3 3 6-7" stroke="#FFFFFF" stroke-width="2" stroke-linecap="round" stroke-linejoin="round"/>
    </g>
    <g transform="translate(432 481)">
      <circle cx="9" cy="9" r="9" fill="#2563EB"/>
      <path d="M5 9h8M9 5v8" stroke="#FFFFFF" stroke-width="2" stroke-linecap="round"/>
    </g>
    <g transform="translate(510 481)">
      <circle cx="9" cy="9" r="9" fill="#EA580C"/>
      <path d="M5 6h8v8H5z" stroke="#FFFFFF" stroke-width="2" stroke-linejoin="round"/>
    </g>
    <g transform="translate(588 481)">
      <circle cx="9" cy="9" r="9" fill="#7C3AED"/>
      <path d="M5 8h8M5 12h8" stroke="#FFFFFF" stroke-width="2" stroke-linecap="round"/>
    </g>
    <g transform="translate(666 481)">
      <circle cx="9" cy="9" r="9" fill="#DB2777"/>
      <path d="M5 9h8" stroke="#FFFFFF" stroke-width="2" stroke-linecap="round"/>
    </g>
    <g transform="translate(744 481)">
      <circle cx="9" cy="9" r="9" fill="#0891B2"/>
      <path d="M5 10c4-6 8-6 12 0" stroke="#FFFFFF" stroke-width="2" stroke-linecap="round"/>
    </g>
    <g transform="translate(822 481)">
      <circle cx="9" cy="9" r="9" fill="#0F172A"/>
      <path d="M6 6h6v6H6z" stroke="#FFFFFF" stroke-width="2" stroke-linejoin="round"/>
    </g>
  </g>
</svg>
